<svg width="18" height="18" viewBox="0 0 18 18" fill="none" xmlns="http://www.w3.org/2000/svg">
<path fill-rule="evenodd" clip-rule="evenodd" d="M13.4908 2.5798C13.674 2.82366 13.7731 3.12045 13.7731 3.4255C13.7731 3.73054 13.674 4.02734 13.4908 4.27119C13.4045 4.39988 13.3709 4.55672 13.3968 4.70945C13.4227 4.86217 13.5062 4.99915 13.63 5.09221C13.7539 5.18527 13.9087 5.22732 14.0626 5.20972C14.2165 5.19211 14.3578 5.11619 14.4574 4.99757C14.7863 4.5598 14.9814 4.01563 14.9814 3.4255C14.9814 2.83617 14.7863 2.292 14.4574 1.85423C14.4109 1.78785 14.3515 1.73149 14.2827 1.68852C14.214 1.64555 14.1373 1.61684 14.0573 1.6041C13.9772 1.59136 13.8954 1.59485 13.8167 1.61436C13.738 1.63387 13.6641 1.669 13.5993 1.71766C13.5344 1.76633 13.48 1.82753 13.4393 1.89764C13.3986 1.96774 13.3724 2.04532 13.3623 2.12575C13.3522 2.20618 13.3584 2.28782 13.3804 2.36582C13.4025 2.44383 13.44 2.5166 13.4908 2.5798ZM2.87568 1.85423C2.53486 2.30711 2.3509 2.85871 2.35166 3.4255C2.35166 4.01563 2.54676 4.5598 2.87568 4.99757C2.97305 5.12283 3.11575 5.2048 3.273 5.22581C3.43026 5.24682 3.58947 5.20518 3.71631 5.10987C3.84314 5.01456 3.92743 4.87322 3.951 4.71632C3.97457 4.55943 3.93553 4.39956 3.8423 4.27119C3.65903 4.02734 3.55993 3.73054 3.55993 3.4255C3.55993 3.12045 3.65903 2.82366 3.8423 2.5798C3.89306 2.5166 3.93058 2.44383 3.95265 2.36582C3.97472 2.28782 3.98088 2.20618 3.97076 2.12575C3.96064 2.04532 3.93445 1.96774 3.89374 1.89764C3.85304 1.82753 3.79865 1.76633 3.73382 1.71766C3.66899 1.669 3.59503 1.63387 3.51635 1.61436C3.43767 1.59485 3.35587 1.59136 3.27581 1.6041C3.19575 1.61684 3.11908 1.64555 3.05034 1.68852C2.9816 1.73149 2.9222 1.78785 2.87568 1.85423ZM15.5732 1.77362C15.919 2.23476 16.1238 2.80634 16.1238 3.4263C16.1238 4.04626 15.919 4.61785 15.5732 5.07899C15.5224 5.1422 15.4849 5.21497 15.4628 5.29297C15.4407 5.37098 15.4346 5.45262 15.4447 5.53305C15.4548 5.61348 15.481 5.69105 15.5217 5.76116C15.5624 5.83126 15.6168 5.89247 15.6816 5.94113C15.7465 5.9898 15.8204 6.02493 15.8991 6.04444C15.9778 6.06395 16.0596 6.06743 16.1396 6.05469C16.2197 6.04195 16.2964 6.01324 16.3651 5.97027C16.4339 5.9273 16.4933 5.87095 16.5398 5.80456C17.0559 5.11922 17.3344 4.28425 17.3331 3.4263C17.3344 2.56836 17.0559 1.73338 16.5398 1.04805C16.4933 0.981659 16.4339 0.925305 16.3651 0.882335C16.2964 0.839364 16.2197 0.810655 16.1396 0.797914C16.0596 0.785173 15.9778 0.78866 15.8991 0.808169C15.8204 0.827677 15.7465 0.862808 15.6816 0.911473C15.6168 0.960137 15.5624 1.02134 15.5217 1.09145C15.481 1.16155 15.4548 1.23913 15.4447 1.31956C15.4346 1.39999 15.4407 1.48163 15.4628 1.55963C15.4849 1.63764 15.5224 1.71041 15.5732 1.77362ZM0.793295 1.04805C0.277172 1.73338 -0.00134136 2.56836 4.8574e-06 3.4263C4.8574e-06 4.31875 0.29507 5.14187 0.793295 5.80456C0.839817 5.87095 0.899213 5.9273 0.967951 5.97027C1.03669 6.01324 1.11337 6.04195 1.19342 6.05469C1.27348 6.06743 1.35528 6.06395 1.43397 6.04444C1.51265 6.02493 1.5866 5.9898 1.65144 5.94113C1.71627 5.89247 1.77065 5.83126 1.81136 5.76116C1.85206 5.69105 1.87825 5.61348 1.88837 5.53305C1.89849 5.45262 1.89233 5.37098 1.87027 5.29297C1.8482 5.21497 1.81067 5.1422 1.75992 5.07899C1.4017 4.60254 1.20841 4.02239 1.20929 3.4263C1.20929 2.80634 1.41406 2.23476 1.75992 1.77362C1.81067 1.71041 1.8482 1.63764 1.87027 1.55963C1.89233 1.48163 1.89849 1.39999 1.88837 1.31956C1.87825 1.23913 1.85206 1.16155 1.81136 1.09145C1.77065 1.02134 1.71627 0.960137 1.65144 0.911473C1.5866 0.862808 1.51265 0.827677 1.43397 0.808169C1.35528 0.78866 1.27348 0.785173 1.19342 0.797914C1.11337 0.810655 1.03669 0.839364 0.967951 0.882335C0.899213 0.925305 0.839817 0.981659 0.793295 1.04805ZM8.66654 0C6.54223 0 4.83714 1.6414 4.83714 3.64317V8.85276C4.83714 10.8545 6.54223 12.4959 8.66654 12.4959C10.7908 12.4959 12.4959 10.8545 12.4959 8.85276V3.64317C12.4959 1.6414 10.7908 0 8.66654 0ZM8.66654 11.2866C7.2291 11.2866 6.04642 10.2072 6.04642 8.85276V3.64317C6.04642 2.28877 7.2291 1.20928 8.66654 1.20928C10.104 1.20928 11.2867 2.28877 11.2867 3.64317V8.85276C11.2867 10.2072 10.104 11.2866 8.66654 11.2866Z" fill="#686868"/>
<path fill-rule="evenodd" clip-rule="evenodd" d="M8.6665 13.3021C6.13184 13.3021 4.03091 11.618 4.03091 9.47271V7.86033C4.03091 7.69997 3.96721 7.54618 3.85381 7.43279C3.74042 7.31939 3.58663 7.25569 3.42627 7.25569C3.26591 7.25569 3.11211 7.31939 2.99872 7.43279C2.88533 7.54618 2.82162 7.69997 2.82162 7.86033V9.47271C2.82162 12.2258 5.41272 14.5114 8.6665 14.5114C11.9203 14.5114 14.5114 12.2258 14.5114 9.47271V7.86033C14.5114 7.69997 14.4477 7.54618 14.3343 7.43279C14.2209 7.31939 14.0671 7.25569 13.9067 7.25569C13.7464 7.25569 13.5926 7.31939 13.4792 7.43279C13.3658 7.54618 13.3021 7.69997 13.3021 7.86033V9.47271C13.3021 11.618 11.2012 13.3021 8.6665 13.3021Z" fill="#686868"/>
<path fill-rule="evenodd" clip-rule="evenodd" d="M8.06195 13.9068V16.7285C8.06195 16.8888 8.12565 17.0426 8.23905 17.156C8.35244 17.2694 8.50623 17.3331 8.66659 17.3331C8.82695 17.3331 8.98075 17.2694 9.09414 17.156C9.20753 17.0426 9.27123 16.8888 9.27123 16.7285V13.9068C9.27123 13.7464 9.20753 13.5926 9.09414 13.4792C8.98075 13.3659 8.82695 13.3022 8.66659 13.3022C8.50623 13.3022 8.35244 13.3659 8.23905 13.4792C8.12565 13.5926 8.06195 13.7464 8.06195 13.9068Z" fill="#686868"/>
<path fill-rule="evenodd" clip-rule="evenodd" d="M11.0851 16.1238H6.24801C6.08765 16.1238 5.93386 16.1875 5.82047 16.3009C5.70708 16.4143 5.64337 16.5681 5.64337 16.7284C5.64337 16.8888 5.70708 17.0426 5.82047 17.156C5.93386 17.2694 6.08765 17.3331 6.24801 17.3331H11.0851C11.2455 17.3331 11.3993 17.2694 11.5127 17.156C11.6261 17.0426 11.6898 16.8888 11.6898 16.7284C11.6898 16.5681 11.6261 16.4143 11.5127 16.3009C11.3993 16.1875 11.2455 16.1238 11.0851 16.1238Z" fill="#686868"/>
</svg>
