<svg width="127" height="127" viewBox="0 0 127 127" fill="none" xmlns="http://www.w3.org/2000/svg">
<g clip-path="url(#clip0_39335_616)">
<path d="M108.564 55.737C106.604 55.737 104.441 57.2134 104.441 60.7416H112.533C112.533 57.2134 110.485 55.737 108.564 55.737ZM82.6801 56.3125C80.8703 56.3125 79.7471 56.9515 78.9336 57.8564L78.9772 69.4967C79.7471 70.3143 80.8505 70.9731 82.6801 70.9731C85.5693 70.9731 87.51 67.8219 87.51 63.611C87.51 59.5113 85.5257 56.2927 82.6801 56.3125ZM116.414 14.1128H10.5798C7.77287 14.1138 5.08123 15.2293 3.09645 17.2141C1.11167 19.1989 -0.00383095 21.8905 -0.00488281 24.6974V102.31C-0.00383095 105.117 1.11167 107.809 3.09645 109.794C5.08123 111.778 7.77287 112.894 10.5798 112.895H116.414C119.221 112.894 121.913 111.778 123.898 109.794C125.883 107.809 126.998 105.117 126.999 102.31V24.6974C126.998 21.8905 125.883 19.1989 123.898 17.2141C121.913 15.2293 119.221 14.1138 116.414 14.1128ZM26.9429 69.0363C26.9429 74.6799 22.4662 77.8787 15.9416 77.9224C12.9976 77.9148 10.0861 77.3071 7.38493 76.1364V68.6593C10.0321 70.0722 13.3619 71.1517 15.9614 71.1517C17.7037 71.1517 18.9618 70.6913 18.9618 69.2348C18.9618 65.4883 7.05552 66.8972 7.05552 58.2334C7.05552 52.6771 11.2902 49.3672 17.6402 49.3672C20.2437 49.3672 22.8234 49.7641 25.4229 50.7999V58.1659C23.018 56.9059 20.3545 56.2186 17.6402 56.1577C15.9852 56.1577 14.9732 56.6419 14.9732 57.8564C14.9732 61.3846 26.9469 59.7098 26.9469 69.0363H26.9429ZM42.1115 56.5546H36.1584V67.6909C36.1584 72.2986 41.1193 70.8659 42.1115 70.469V76.8389C41.0756 77.4144 39.1786 77.8747 36.6227 77.8747C31.9713 77.8747 28.4868 74.4576 28.4868 69.8261L28.5304 44.7119L36.1822 43.0807V49.8712H42.1115V56.5546ZM58.427 57.0825C57.4348 56.753 54.3035 56.2887 52.4501 58.7136V77.3231H44.6237V49.8712H51.3944L51.8786 52.185C53.7082 48.8116 57.3674 49.4942 58.4032 49.8712H58.427V57.0825ZM68.1505 77.3231H60.2765V49.8712H68.1505V77.3231ZM68.1505 45.8152L60.2765 47.49V41.1201L68.1505 39.4453V45.8152ZM84.4898 77.8985C81.7553 77.8985 80.0805 76.7317 78.9574 75.9142L78.9336 84.7764L71.1072 86.4314V49.8752H78.0088L78.4057 51.8159C79.4852 50.8237 81.4696 49.3672 84.5335 49.3672C90.0262 49.3672 95.2054 54.3281 95.2054 63.4364C95.2054 73.3821 90.0897 77.8787 84.4898 77.9025V77.8985ZM119.855 66.544H104.532C104.885 70.2031 107.572 71.2826 110.616 71.2826C113.724 71.2826 116.172 70.6199 118.311 69.5404V75.8467C116.172 77.0135 113.37 77.8747 109.624 77.8747C101.996 77.8747 96.658 73.0884 96.658 63.6547C96.658 55.6735 101.178 49.3474 108.632 49.3474C116.061 49.3474 119.943 55.6735 119.943 63.6984C119.943 64.4683 119.875 66.1034 119.855 66.544Z" fill="#686868"/>
</g>
<defs>
<clipPath id="clip0_39335_616">
<rect width="127" height="127" fill="white"/>
</clipPath>
</defs>
</svg>
