<svg width="127" height="99" viewBox="0 0 127 99" fill="none" xmlns="http://www.w3.org/2000/svg">
<rect width="127" height="99" rx="11" fill="#686868"/>
<g clip-path="url(#clip0_40237_26)">
<path d="M62.5522 54.5489C64.265 54.5427 68.0097 54.5289 67.9665 52.147C67.9249 49.7111 64.3282 49.8576 62.5753 49.9301C62.3795 49.9378 62.2053 49.9455 62.0635 49.947L62.1436 54.552C62.2593 54.5489 62.398 54.5489 62.5522 54.5489V54.5489Z" fill="white"/>
<path d="M62.3704 47.8379C63.7995 47.8364 66.9183 47.8333 66.8813 45.6673C66.8412 43.4519 63.8457 43.5829 62.3827 43.6477C62.2177 43.6554 62.0744 43.6615 61.9541 43.6631L62.0266 47.8395L62.3704 47.8379Z" fill="white"/>
<path fill-rule="evenodd" clip-rule="evenodd" d="M59.0227 67.4463C68.9356 69.9176 78.975 63.885 81.4463 53.9752C83.9176 44.0638 77.8835 34.0245 67.9706 31.5547C58.0638 29.0819 48.0245 35.116 45.5547 45.0289C43.0834 54.9387 49.116 64.9781 59.0243 67.4478L59.0227 67.4463ZM65.6241 41.2071C68.3282 41.3983 70.4804 42.1907 70.7625 44.6635C70.9722 46.4734 70.2322 47.5757 69.0312 48.214C71.0354 48.658 72.3073 49.8219 72.1069 52.4859C71.8586 55.7928 69.412 56.7224 65.9001 56.9845L65.9587 60.4533L63.8682 60.4918L63.8081 57.0693C63.2669 57.0786 62.7119 57.0847 62.1369 57.0816L62.1986 60.5196L60.1081 60.5566L60.0464 57.0816L59.4559 57.0863C59.1569 57.0878 58.8547 57.0894 58.5525 57.0955L55.8299 57.1418L56.2015 54.6381C56.2015 54.6381 57.7493 54.635 57.7216 54.6119C58.3136 54.5996 58.4631 54.1725 58.4955 53.9043L58.4014 48.4206L58.551 48.4175H58.6219C58.5482 48.409 58.474 48.4054 58.3999 48.4067L58.3321 44.4909C58.2442 44.0684 57.9605 43.5813 57.1141 43.5967C57.1373 43.5659 55.5941 43.6229 55.5941 43.6229L55.554 41.3906L58.44 41.3412V41.352C58.8732 41.3443 59.3187 41.3289 59.7704 41.3119L59.7119 37.8756L61.8024 37.8401L61.8609 41.2071C62.419 41.1871 62.9802 41.1655 63.5306 41.1562L63.472 37.8108L65.564 37.7738L65.6241 41.2102V41.2071Z" fill="white"/>
</g>
<defs>
<clipPath id="clip0_40237_26">
<rect width="37" height="37" fill="white" transform="translate(45 31)"/>
</clipPath>
</defs>
</svg>
