<svg width="128" height="113" viewBox="0 0 128 113" fill="none" xmlns="http://www.w3.org/2000/svg">
<path d="M41.4 56.9855C41.4 59.6781 39.2444 61.7307 36.5111 61.7307C34.4667 61.7307 32.9556 60.583 32.9556 58.4201C32.9556 55.7275 35.0667 53.5646 37.7778 53.5646C39.8444 53.5646 41.4 54.8227 41.4 56.9855ZM17.8889 46.2814H16.8444C16.5111 46.2814 16.1778 46.5021 16.1333 46.8773L15.1778 52.7701L17 52.7039C19.4444 52.7039 21.3333 52.3729 21.7778 49.5699C22.2889 46.6125 20.4 46.2814 17.8889 46.2814ZM81 46.2814H80C79.6 46.2814 79.3333 46.5021 79.2889 46.8773L78.3556 52.7701L80.1333 52.7039C83.0222 52.7039 85.0222 52.0418 85.0222 48.7313C85 46.3918 82.8889 46.2814 81 46.2814ZM128 17.6562V95.3438C128 101.192 123.222 105.938 117.333 105.938H10.6667C4.77778 105.938 0 101.192 0 95.3438V17.6562C0 11.8076 4.77778 7.0625 10.6667 7.0625H117.333C123.222 7.0625 128 11.8076 128 17.6562ZM28.5111 47.5395C28.5111 42.9047 24.9111 41.3598 20.8 41.3598H11.9111C11.3556 41.3598 10.8 41.8012 10.7556 42.3971L7.11111 64.9309C7.04444 65.3723 7.37778 65.8137 7.82222 65.8137H12.0444C12.6444 65.8137 13.2 65.1736 13.2667 64.5557L14.2667 58.685C14.4889 57.0959 17.2 57.6477 18.2667 57.6477C24.6222 57.6477 28.5111 53.8957 28.5111 47.5395ZM47.2222 49.4816H43C42.1556 49.4816 42.1111 50.6955 42.0667 51.2914C40.7778 49.4154 38.9111 49.0844 36.8 49.0844C31.3556 49.0844 27.2 53.8295 27.2 59.0602C27.2 63.3639 29.9111 66.1668 34.2444 66.1668C36.2444 66.1668 38.7333 65.0854 40.1333 63.5404C40.0222 63.8715 39.9111 64.5777 39.9111 64.9088C39.9111 65.4164 40.1333 65.7916 40.6222 65.7916H44.4444C45.0444 65.7916 45.5556 65.1516 45.6667 64.5336L47.9333 50.3424C48 49.923 47.6667 49.4816 47.2222 49.4816ZM56.2222 71.0885L70.3778 50.6514C70.4889 50.541 70.4889 50.4307 70.4889 50.2762C70.4889 49.901 70.1556 49.5037 69.7778 49.5037H65.5111C65.1333 49.5037 64.7333 49.7244 64.5111 50.0555L58.6222 58.6629L56.1778 50.3865C56 49.901 55.5111 49.5037 54.9556 49.5037H50.8C50.4222 49.5037 50.0889 49.901 50.0889 50.2762C50.0889 50.541 54.4222 62.8121 54.8 63.9818C54.2 64.8205 50.2444 70.2939 50.2444 70.9561C50.2444 71.3533 50.5778 71.6623 50.9556 71.6623H55.2222C55.6222 71.6402 56 71.4195 56.2222 71.0885ZM91.6222 47.5395C91.6222 42.9047 88.0222 41.3598 83.9111 41.3598H75.0889C74.4889 41.3598 73.9333 41.8012 73.8667 42.3971L70.2667 64.9088C70.2222 65.3502 70.5556 65.7916 70.9778 65.7916H75.5333C75.9778 65.7916 76.3111 65.4605 76.4222 65.0854L77.4222 58.685C77.6444 57.0959 80.3556 57.6477 81.4222 57.6477C87.7333 57.6477 91.6222 53.8957 91.6222 47.5395ZM110.333 49.4816H106.111C105.267 49.4816 105.222 50.6955 105.156 51.2914C103.933 49.4154 102.044 49.0844 99.8889 49.0844C94.4444 49.0844 90.2889 53.8295 90.2889 59.0602C90.2889 63.3639 93 66.1668 97.3333 66.1668C99.4 66.1668 101.889 65.0854 103.222 63.5404C103.156 63.8715 103 64.5777 103 64.9088C103 65.4164 103.222 65.7916 103.711 65.7916H107.556C108.156 65.7916 108.667 65.1516 108.778 64.5336L111.044 50.3424C111.111 49.923 110.778 49.4816 110.333 49.4816ZM120.889 42.1322C120.889 41.6908 120.556 41.3598 120.178 41.3598H116.067C115.733 41.3598 115.4 41.6246 115.356 41.9557L111.756 64.9088L111.689 65.0191C111.689 65.4164 112.022 65.7916 112.467 65.7916H116.133C116.689 65.7916 117.244 65.1516 117.289 64.5336L120.889 42.1984V42.1322ZM100.889 53.5646C98.1778 53.5646 96.0667 55.7055 96.0667 58.4201C96.0667 60.5609 97.6222 61.7307 99.6667 61.7307C102.333 61.7307 104.489 59.7002 104.489 56.9855C104.511 54.8227 102.956 53.5646 100.889 53.5646Z" fill="#686868"/>
</svg>
