<svg width="20" height="18" viewBox="0 0 20 18" fill="none" xmlns="http://www.w3.org/2000/svg">
<path fill-rule="evenodd" clip-rule="evenodd" d="M16.665 7.91417C16.6661 7.86246 16.6666 7.8106 16.6666 7.75862C16.6666 3.47366 12.9357 0 8.33332 0C3.73096 0 0 3.47366 0 7.75862C0 9.3614 0.522683 10.8521 1.41787 12.0891L0.704429 14.746C0.644716 14.9684 0.721506 15.2033 0.904156 15.357C1.08681 15.5107 1.34558 15.5582 1.5772 15.4805L4.32063 14.56C5.51143 15.1702 6.87973 15.5172 8.33332 15.5172C8.72139 15.5172 9.10326 15.4925 9.47722 15.4447C10.469 16.976 12.2727 18 14.3333 18C15.4664 18 16.5233 17.6897 17.4094 17.1556L19.1716 17.5658C19.4105 17.6214 19.6628 17.5499 19.8279 17.3799C19.993 17.2098 20.044 16.9689 19.9605 16.7533L19.3508 15.1781C19.7654 14.4446 20 13.6091 20 12.7241C20 10.5842 18.6316 8.74182 16.665 7.91417ZM8.33332 1.24138C4.46733 1.24138 1.33333 4.15924 1.33333 7.75862C1.33333 9.19527 1.83184 10.5217 2.67676 11.5986C2.79346 11.7473 2.83316 11.9366 2.7852 12.1153L2.30111 13.9181L4.15926 13.2946C4.34796 13.2314 4.55723 13.2505 4.72906 13.3468C5.78139 13.9365 7.01376 14.2759 8.33332 14.2759C8.52702 14.2759 8.71889 14.2685 8.90862 14.2542C8.75126 13.7699 8.66666 13.2562 8.66666 12.7241C8.66666 9.81037 11.2037 7.44828 14.3333 7.44828C14.6731 7.44828 15.0058 7.47611 15.3291 7.52946C15.1994 4.03622 12.1169 1.24138 8.33332 1.24138ZM14.3333 16.7586C11.9401 16.7586 9.99999 14.9523 9.99999 12.7241C9.99999 10.496 11.9401 8.68966 14.3333 8.68966C16.7265 8.68966 18.6666 10.496 18.6666 12.7241C18.6666 13.485 18.441 14.195 18.0491 14.8013C17.9456 14.9613 17.9251 15.1561 17.993 15.3318L18.2824 16.0793L17.4413 15.8835C17.2494 15.8388 17.0461 15.8758 16.8863 15.9845C16.1704 16.4714 15.2889 16.7586 14.3333 16.7586Z" fill="#686868"/>
</svg>
