<svg width="20" height="18" viewBox="0 0 20 18" fill="none" xmlns="http://www.w3.org/2000/svg">
<path d="M7.72726 11.2908C7.5607 11.2908 7.40096 11.2246 7.28318 11.1068C7.16541 10.989 7.09924 10.8293 7.09924 10.6627C7.09924 5.55489 10.4947 3.54525 13.8818 3.32628V1.22369C13.8819 1.10165 13.9176 0.982293 13.9845 0.880212C14.0514 0.778131 14.1466 0.697749 14.2584 0.648893C14.3702 0.600037 14.4939 0.584825 14.6142 0.605116C14.7346 0.625407 14.8464 0.680322 14.936 0.763147L19.7989 5.25721C19.8624 5.316 19.9129 5.38725 19.9475 5.4665C19.9821 5.54575 20 5.63129 20 5.71776C20 5.80423 19.9821 5.88977 19.9475 5.96901C19.9129 6.04826 19.8624 6.11951 19.7989 6.1783L14.9373 10.6745C14.8476 10.7573 14.7358 10.8122 14.6155 10.8325C14.4951 10.8528 14.3715 10.8376 14.2597 10.7887C14.1478 10.7399 14.0526 10.6595 13.9858 10.5574C13.9189 10.4553 13.8832 10.336 13.883 10.2139V8.07197C12.9089 8.01519 11.9337 8.16545 11.0218 8.51284C9.52086 9.12159 8.26233 10.9918 8.24977 11.0107C8.19247 11.0968 8.11479 11.1674 8.02364 11.2162C7.93249 11.2651 7.83068 11.2907 7.72726 11.2908ZM13.4966 6.80464C13.8721 6.8015 14.2473 6.82796 14.6187 6.88377C14.7644 6.90911 14.8965 6.98508 14.9917 7.09828C15.0869 7.21148 15.1391 7.35466 15.1391 7.50257V8.77744L18.4466 5.7186L15.1391 2.65975V3.9342C15.1391 4.10076 15.0729 4.2605 14.9551 4.37827C14.8374 4.49605 14.6776 4.56221 14.5111 4.56221C13.255 4.56221 9.53091 4.89715 8.57884 8.70082C9.14633 8.1322 9.8144 7.67381 10.5491 7.34892C11.4882 6.98206 12.4885 6.79734 13.4966 6.80464Z" fill="#686868"/>
<path d="M19.1345 17.4946H1.55807C1.39151 17.4946 1.23177 17.4284 1.11399 17.3107C0.996219 17.1929 0.930054 17.0332 0.930054 16.8666V1.65318C0.930054 1.48662 0.996219 1.32688 1.11399 1.2091C1.23177 1.09133 1.39151 1.02516 1.55807 1.02516H10.9523C11.1189 1.02516 11.2786 1.09133 11.3964 1.2091C11.5142 1.32688 11.5803 1.48662 11.5803 1.65318C11.5803 1.81974 11.5142 1.97947 11.3964 2.09725C11.2786 2.21502 11.1189 2.28119 10.9523 2.28119H2.18608V16.2386H18.5065V9.92705C18.5065 9.76049 18.5727 9.60075 18.6904 9.48298C18.8082 9.3652 18.9679 9.29903 19.1345 9.29903C19.3011 9.29903 19.4608 9.3652 19.5786 9.48298C19.6963 9.60075 19.7625 9.76049 19.7625 9.92705V16.8666C19.7625 17.0332 19.6963 17.1929 19.5786 17.3107C19.4608 17.4284 19.3011 17.4946 19.1345 17.4946Z" fill="#686868"/>
</svg>
